<svg xmlns="http://www.w3.org/2000/svg" viewBox="0 0 512 512">
  <defs>
    <radialGradient id="a" cx="35%" cy="30%">
      <stop offset="0%" stop-color="#a3e635"/>
      <stop offset="40%" stop-color="#65c21b"/>
      <stop offset="100%" stop-color="#3a8010"/>
    </radialGradient>
    <radialGradient id="b" cx="30%" cy="25%">
      <stop offset="0%" stop-color="rgba(255,255,255,0.35)"/>
      <stop offset="100%" stop-color="rgba(255,255,255,0)"/>
    </radialGradient>
  </defs>
  <!-- 茎 -->
  <path d="M256 58 C254 32 250 18 248 8" fill="none" stroke="#5b3a0f" stroke-width="6" stroke-linecap="round"/>
  <!-- 叶子 -->
  <path d="M256 54 C272 38 298 24 312 18 C296 30 280 44 272 58Z" fill="#5cb818"/>
  <path d="M312 18 C302 28 290 38 280 46 C296 36 308 26 312 18Z" fill="#4a9b10"/>
  <!-- 苹果身体（圆润饱满，像emoji🍏） -->
  <path d="M256 82 C156 82 52 180 52 310 C52 430 130 498 256 498 C382 498 460 430 460 310 C460 180 356 82 256 82Z" fill="url(#a)"/>
  <!-- 顶部凹陷 -->
  <ellipse cx="256" cy="90" rx="95" ry="22" fill="#3a8010" transform="translate(0 -12)"/>
  <ellipse cx="256" cy="88" rx="85" ry="18" fill="rgba(0,0,0,0.1)" transform="translate(0 -8)"/>
  <!-- 全身高光 -->
  <ellipse cx="180" cy="260" rx="70" ry="100" fill="url(#b)" transform="rotate(-12 180 260)"/>
  <!-- 小高光点 -->
  <ellipse cx="165" cy="190" rx="18" ry="22" fill="rgba(255,255,255,0.25)" transform="rotate(-20 165 190)"/>
  <!-- 底部反光 -->
  <ellipse cx="300" cy="440" rx="60" ry="15" fill="rgba(255,255,255,0.08)"/>
</svg>